<?xml version="1.0" standalone="no"?>
<!DOCTYPE svg PUBLIC "-//W3C//DTD SVG 20010904//EN"
 "http://www.w3.org/TR/2001/REC-SVG-20010904/DTD/svg10.dtd">
<svg version="1.0" xmlns="http://www.w3.org/2000/svg"
 width="792.000000pt" height="792.000000pt" viewBox="0 0 792.000000 792.000000"
 preserveAspectRatio="xMidYMid meet">
<metadata>
Created by potrace 1.14, written by Peter Selinger 2001-2017
</metadata>
<g transform="translate(0.000000,792.000000) scale(0.100000,-0.100000)"
fill="#000000" stroke="none">
<path d="M3949 7682 c-2 -21 -4 -27 -11 -37 -3 -5 -16 -44 -27 -85 -12 -41
-25 -82 -28 -90 -10 -25 -60 -205 -69 -250 -3 -14 -12 -52 -21 -85 -8 -33 -17
-73 -20 -90 -2 -16 -9 -45 -14 -63 -6 -17 -12 -47 -14 -65 -2 -17 -4 -33 -5
-34 -4 -5 -6 -15 -14 -78 -4 -32 -9 -66 -11 -75 -28 -154 -38 -275 -38 -495
-1 -250 10 -337 67 -550 9 -33 18 -67 21 -75 2 -8 4 -16 5 -17 2 -2 3 -6 4
-10 13 -60 99 -254 154 -348 111 -192 287 -392 602 -685 248 -231 434 -422
506 -522 21 -29 42 -55 46 -56 5 -2 8 -8 8 -12 0 -5 13 -28 29 -52 16 -24 45
-76 66 -115 20 -40 38 -73 39 -73 3 0 37 102 42 123 1 4 2 8 4 10 1 1 3 9 5
17 1 8 8 35 15 60 7 25 14 52 16 60 2 8 8 33 13 55 9 34 46 224 56 290 2 11 6
47 10 80 3 33 8 78 11 100 26 219 17 591 -21 800 -8 44 -16 94 -19 110 -3 17
-12 57 -21 90 -8 33 -17 69 -19 81 -1 11 -6 26 -10 33 -4 6 -9 23 -12 37 -15
82 -150 332 -231 425 -41 49 -163 168 -214 211 -24 21 -55 47 -69 59 -14 12
-79 65 -145 118 -150 120 -312 283 -387 387 -49 69 -170 284 -167 299 0 3 -9
31 -21 63 -28 73 -61 196 -75 277 -3 17 -8 37 -10 45 -2 8 -7 42 -11 75 -6 57
-13 82 -15 57z"/>
<path d="M3036 6348 c-7 -18 -17 -42 -21 -53 -4 -11 -9 -26 -11 -33 -1 -8 -6
-21 -10 -30 -4 -9 -8 -19 -9 -22 -1 -3 -7 -18 -13 -33 -7 -16 -12 -31 -12 -33
0 -3 -8 -24 -19 -47 -10 -23 -42 -105 -70 -182 -29 -77 -56 -149 -61 -160 -5
-11 -23 -58 -41 -105 -17 -47 -35 -94 -40 -105 -11 -24 -57 -152 -105 -290
-19 -55 -39 -109 -44 -120 -17 -37 -100 -303 -100 -319 0 -9 -5 -16 -12 -16
-6 0 -9 -3 -5 -6 3 -3 2 -17 -4 -31 -24 -64 -122 -465 -134 -553 -3 -19 -10
-60 -15 -90 -18 -107 -21 -123 -25 -169 -3 -25 -7 -66 -10 -91 -22 -176 -22
-643 0 -780 2 -14 7 -45 10 -70 4 -25 11 -67 16 -95 6 -27 12 -59 14 -70 2
-11 6 -30 9 -42 3 -13 8 -31 10 -40 3 -10 17 -56 31 -103 15 -47 28 -89 29
-95 2 -5 8 -23 15 -40 7 -16 25 -61 41 -100 85 -212 227 -454 377 -645 133
-169 278 -318 398 -407 55 -41 108 -81 118 -89 9 -8 19 -14 22 -14 3 0 15 -9
27 -19 13 -11 68 -53 123 -95 55 -41 105 -79 110 -83 6 -5 39 -31 75 -58 36
-28 70 -54 76 -60 27 -25 109 -91 128 -105 12 -8 26 -19 32 -25 6 -5 37 -32
69 -60 224 -192 378 -352 444 -461 l39 -64 38 77 c21 43 42 79 46 81 5 2 8 7
8 12 0 11 61 111 192 314 59 92 108 170 108 173 0 2 6 10 13 17 10 10 90 136
188 296 80 131 272 487 274 510 1 3 11 27 24 54 40 85 93 228 107 289 37 154
36 331 -1 522 -32 161 -98 315 -210 485 -72 109 -108 151 -221 264 -85 84 -90
89 -164 146 -25 19 -46 38 -48 43 -2 4 -8 7 -13 7 -7 0 -169 122 -205 155 -6
5 -26 21 -44 35 -18 14 -42 33 -54 43 -11 10 -42 36 -67 58 -25 21 -57 49 -71
61 -14 13 -47 43 -74 67 -76 67 -323 312 -384 381 -30 34 -66 74 -80 88 -14
15 -43 50 -65 77 -22 27 -47 56 -55 65 -8 8 -22 25 -30 37 -8 11 -47 64 -87
116 -79 105 -178 254 -252 379 -98 166 -236 500 -265 643 -3 11 -9 40 -14 65
-6 25 -13 65 -17 90 -3 25 -9 61 -12 80 -9 48 -9 315 0 368 8 50 1 54 -17 10z"/>
</g>
</svg>
